<?xml version="1.0" encoding="UTF-8"?>
<svg xmlns="http://www.w3.org/2000/svg" version="1.1" viewBox="0 0 28.3 18.6">
  <defs>
    <style>
      .cls-1 {
        fill: #e9484e;
      }

      .cls-2 {
        fill: #f5f5f5;
      }

      .cls-3 {
        fill: #204698;
      }
    </style>
  </defs>
  <!-- Generator: Adobe Illustrator 28.7.0, SVG Export Plug-In . SVG Version: 1.2.0 Build 136)  -->
  <g>
    <g id="Layer_1">
      <path class="cls-3" d="M26.2,0H2.1C1,0,0,1,0,2.1v14.3C0,17.6,1,18.6,2.1,18.6h24.1c1.2,0,2.1-1,2.1-2.1V2.1C28.3,1,27.4,0,26.2,0Z"/>
      <path class="cls-2" d="M28.3,1.8c-.2-1-1-1.8-2.1-1.8h-.6l-9.1,5.9V0h-4.9v5.9L2.7,0h-.6C1.1,0,.2.8,0,1.8l7.7,5.1H0v4.9h7.8L0,16.8c.2,1,1,1.8,2.1,1.8h.6l9.1-5.9v5.9h4.9v-5.9l9.1,5.9h.6c1.1,0,1.9-.8,2.1-1.8l-7.7-5.1h7.8v-4.9h-7.8l7.7-5.1Z"/>
      <g>
        <polygon class="cls-1" points="15.6 0 12.7 0 12.7 7.8 0 7.8 0 10.8 12.7 10.8 12.7 18.6 15.6 18.6 15.6 10.8 28.3 10.8 28.3 7.8 15.6 7.8 15.6 0"/>
        <path class="cls-1" d="M1.4,18.4l10.3-6.7h-1.8L.5,17.8c.2.3.5.5.9.6Z"/>
        <path class="cls-1" d="M19.2,11.7h-1.8l10,6.5c.3-.2.5-.4.7-.7l-8.9-5.8Z"/>
        <path class="cls-1" d="M.2,1.2l8.7,5.7h1.8L.9.4c-.3.2-.5.5-.6.8Z"/>
        <path class="cls-1" d="M18.4,6.8L27.8.7c-.2-.3-.5-.5-.9-.6l-10.3,6.7h1.8Z"/>
      </g>
    </g>
  </g>
</svg>