<?xml version="1.0" encoding="UTF-8"?>
<svg xmlns="http://www.w3.org/2000/svg" version="1.1" viewBox="0 0 24 24">
  <defs>
    <style>
      .cls-1 {
        fill: #16a085;
      }
    </style>
  </defs>
  <!-- Generator: Adobe Illustrator 28.7.0, SVG Export Plug-In . SVG Version: 1.2.0 Build 136)  -->
  <g>
    <g id="Ebene_1">
      <path class="cls-1" d="M19,3H5c-1.1,0-2,.9-2,2v14c0,1.1.9,2,2,2h14c1.1,0,2-.9,2-2V5c0-1.1-.9-2-2-2M11,8h-2v2c0,1.1-.9,2-2,2,1.1,0,2,.9,2,2v2h2v2h-2c-1.1,0-2-.9-2-2v-1c0-1.1-.9-2-2-2v-2c1.1,0,2-.9,2-2v-1c0-1.1.9-2,2-2h2v2M19,13c-1.1,0-2,.9-2,2v1c0,1.1-.9,2-2,2h-2v-2h2v-2c0-1.1.9-2,2-2-1.1,0-2-.9-2-2v-2h-2v-2h2c1.1,0,2,.9,2,2v1c0,1.1.9,2,2,2v2Z"/>
    </g>
  </g>
</svg>