<?xml version="1.0" encoding="UTF-8"?>
<svg xmlns="http://www.w3.org/2000/svg" version="1.1" viewBox="0 0 24 24">
  <defs>
    <style>
      .cls-1 {
        fill: #16a085;
      }
    </style>
  </defs>
  <!-- Generator: Adobe Illustrator 28.7.0, SVG Export Plug-In . SVG Version: 1.2.0 Build 136)  -->
  <g>
    <g id="Ebene_1">
      <path class="cls-1" d="M19,6h-2c0-2.8-2.2-5-5-5s-5,2.2-5,5h-2c-1.1,0-2,.9-2,2v12c0,1.1.9,2,2,2h7.1c-1.9-1.2-3-3.3-3.1-5.5,0-1.4.4-2.7,1.2-3.8-2-.7-3.2-2.6-3.2-4.7h2c0,1.7,1.3,3,3,3h0c.6-.4,1.3-.7,2-.8.6-.6.9-1.3.9-2.2h2c0,.7-.2,1.4-.5,2.1,1.8.3,3.5,1.4,4.5,3v-5.1c0-1.1-.9-2-2-2M9,6c0-1.7,1.3-3,3-3s3,1.3,3,3M19.3,18.9c1.3-2.1.7-4.9-1.4-6.2-2.1-1.3-4.9-.7-6.2,1.4-1.3,2.1-.7,4.9,1.4,6.2,1.5.9,3.3.9,4.8,0l3.1,3.1,1.4-1.4M15.5,19c-1.4,0-2.5-1.1-2.5-2.5s1.1-2.5,2.5-2.5,2.5,1.1,2.5,2.5-1.1,2.5-2.5,2.5Z"/>
    </g>
  </g>
</svg>