<?xml version="1.0" encoding="UTF-8"?>
<svg xmlns="http://www.w3.org/2000/svg" version="1.1" viewBox="0 0 24 24">
  <defs>
    <style>
      .cls-1 {
        fill: #16a085;
      }
    </style>
  </defs>
  <!-- Generator: Adobe Illustrator 28.7.0, SVG Export Plug-In . SVG Version: 1.2.0 Build 136)  -->
  <g>
    <g id="Ebene_1">
      <path class="cls-1" d="M7.1,3.5c-1.4,1.4-1.4,3.6,0,5l8.5,8.5c.6.6.6,1.5,0,2.1-.6.6-1.5.6-2.1,0l-4.2-4.2,1.1-1.1-3.5-3.5-.4.4-1.4-1.4c-.4-.4-1-.4-1.4,0l-1.4,1.4c-.4.4-.4,1,0,1.4l1.4,1.4-.3.4,3.5,3.5,1.1-1.1,4.2,4.3c1.4,1.4,3.6,1.4,5,0,1.4-1.4,1.4-3.6,0-5L8.5,7c-.6-.6-.6-1.6,0-2.1.6-.6,1.5-.6,2.1,0l4.2,4.2-1.1,1.1,3.5,3.5.4-.4,1.4,1.4c.4.4,1,.4,1.4,0l1.4-1.4c.4-.4.4-1,0-1.4l-1.4-1.4.3-.4-3.5-3.5-1.1,1.1-4.2-4.3c-1.4-1.3-3.6-1.3-4.9,0M2.8,11.3l1.4-1.4,1.4,1.4-1.4,1.4M18.4,12.7l1.4-1.4,1.4,1.4-1.4,1.4-1.4-1.4Z"/>
    </g>
  </g>
</svg>