<?xml version="1.0" encoding="UTF-8"?>
<svg xmlns="http://www.w3.org/2000/svg" version="1.1" viewBox="0 0 24 24">
  <defs>
    <style>
      .cls-1 {
        fill: #16a085;
      }
    </style>
  </defs>
  <!-- Generator: Adobe Illustrator 28.7.0, SVG Export Plug-In . SVG Version: 1.2.0 Build 136)  -->
  <g>
    <g id="Ebene_1">
      <path class="cls-1" d="M21.7,20.3l-1.4,1.4c-.4.4-1,.4-1.4,0L7,9.8c-.3,0-.7.1-1,.1-2.2,0-4-1.8-4-4,0-.4,0-.9.2-1.3l2.5,2.5.5-.5,1.4-1.4.5-.5-2.5-2.5c2.1-.7,4.4.4,5.1,2.5.1.4.2.9.2,1.3,0,.3,0,.7-.1,1l11.9,11.9c.4.4.4,1,0,1.4M2.3,18.9c-.4.4-.4,1,0,1.4l1.4,1.4c.4.4,1,.4,1.4,0l5.5-5.5-2.8-2.8M20,2l-4,2v2l-2.2,2.2,2,2,2.2-2.2h2l2-4-2-2Z"/>
    </g>
  </g>
</svg>